<svg version="1.1" viewBox="0.0 0.0 938.2493438320209 285.750656167979" fill="none" stroke="none" stroke-linecap="square" stroke-miterlimit="10" xmlns:xlink="http://www.w3.org/1999/xlink" xmlns="http://www.w3.org/2000/svg"><clipPath id="p.0"><path d="m0 0l938.2493 0l0 285.75067l-938.2493 0l0 -285.75067z" clip-rule="nonzero"/></clipPath><g clip-path="url(#p.0)"><path fill="#000000" fill-opacity="0.0" d="m0 0l938.2493 0l0 285.75067l-938.2493 0z" fill-rule="evenodd"/><path fill="#000000" fill-opacity="0.0" d="m20.874016 25.33071l104.47244 0l0 34.803146l-104.47244 0z" fill-rule="evenodd"/><path fill="#fff2cc" d="m30.45214 46.761658l1.625 -0.25q0.125 0.96875 0.75 1.5q0.625 0.515625 1.75 0.515625q1.125 0 1.671875 -0.453125q0.546875 -0.46875 0.546875 -1.09375q0 -0.546875 -0.484375 -0.875q-0.328125 -0.21875 -1.671875 -0.546875q-1.8125 -0.46875 -2.515625 -0.796875q-0.6875 -0.328125 -1.046875 -0.90625q-0.359375 -0.59375 -0.359375 -1.3125q0 -0.640625 0.296875 -1.1875q0.296875 -0.5625 0.8125 -0.921875q0.375 -0.28125 1.03125 -0.46875q0.671875 -0.203125 1.421875 -0.203125q1.140625 0 2.0 0.328125q0.859375 0.328125 1.265625 0.890625q0.421875 0.5625 0.578125 1.5l-1.609375 0.21875q-0.109375 -0.75 -0.640625 -1.171875q-0.515625 -0.421875 -1.46875 -0.421875q-1.140625 0 -1.625 0.375q-0.46875 0.375 -0.46875 0.875q0 0.3125 0.1875 0.578125q0.203125 0.265625 0.640625 0.4375q0.234375 0.09375 1.4375 0.421875q1.75 0.453125 2.4375 0.75q0.6875 0.296875 1.078125 0.859375q0.390625 0.5625 0.390625 1.40625q0 0.828125 -0.484375 1.546875q-0.46875 0.71875 -1.375 1.125q-0.90625 0.390625 -2.046875 0.390625q-1.875 0 -2.875 -0.78125q-0.984375 -0.78125 -1.25 -2.328125zm9.984375 -8.578125l0 -1.890625l1.640625 0l0 1.890625l-1.640625 0zm0 11.46875l0 -9.671875l1.640625 0l0 9.671875l-1.640625 0zm4.144821 0l0 -9.671875l1.46875 0l0 1.359375q0.453125 -0.71875 1.203125 -1.140625q0.765625 -0.4375 1.71875 -0.4375q1.078125 0 1.765625 0.453125q0.6875 0.4375 0.96875 1.234375q1.15625 -1.6875 2.984375 -1.6875q1.453125 0 2.21875 0.796875q0.78125 0.796875 0.78125 2.453125l0 6.640625l-1.640625 0l0 -6.09375q0 -0.984375 -0.15625 -1.40625q-0.15625 -0.4375 -0.578125 -0.703125q-0.421875 -0.265625 -0.984375 -0.265625q-1.015625 0 -1.6875 0.6875q-0.671875 0.671875 -0.671875 2.15625l0 5.625l-1.640625 0l0 -6.28125q0 -1.09375 -0.40625 -1.640625q-0.40625 -0.546875 -1.3125 -0.546875q-0.6875 0 -1.28125 0.359375q-0.59375 0.359375 -0.859375 1.0625q-0.25 0.703125 -0.25 2.03125l0 5.015625l-1.640625 0zm21.868927 0l0 -1.421875q-1.125 1.640625 -3.0625 1.640625q-0.859375 0 -1.609375 -0.328125q-0.734375 -0.328125 -1.09375 -0.828125q-0.359375 -0.5 -0.5 -1.21875q-0.109375 -0.46875 -0.109375 -1.53125l0 -5.984375l1.640625 0l0 5.359375q0 1.28125 0.109375 1.734375q0.15625 0.640625 0.65625 1.015625q0.5 0.375 1.234375 0.375q0.734375 0 1.375 -0.375q0.65625 -0.390625 0.921875 -1.03125q0.265625 -0.65625 0.265625 -1.890625l0 -5.1875l1.640625 0l0 9.671875l-1.46875 0zm4.000717 0l0 -13.359375l1.640625 0l0 13.359375l-1.640625 0zm10.504196 -1.1875q-0.921875 0.765625 -1.765625 1.09375q-0.828125 0.3125 -1.796875 0.3125q-1.59375 0 -2.453125 -0.78125q-0.859375 -0.78125 -0.859375 -1.984375q0 -0.71875 0.328125 -1.296875q0.328125 -0.59375 0.84375 -0.9375q0.53125 -0.359375 1.1875 -0.546875q0.46875 -0.125 1.453125 -0.25q1.984375 -0.234375 2.921875 -0.5625q0.015625 -0.34375 0.015625 -0.421875q0 -1.0 -0.46875 -1.421875q-0.625 -0.546875 -1.875 -0.546875q-1.15625 0 -1.703125 0.40625q-0.546875 0.40625 -0.8125 1.421875l-1.609375 -0.21875q0.21875 -1.015625 0.71875 -1.640625q0.5 -0.640625 1.453125 -0.984375q0.953125 -0.34375 2.1875 -0.34375q1.25 0 2.015625 0.296875q0.78125 0.28125 1.140625 0.734375q0.375 0.4375 0.515625 1.109375q0.078125 0.421875 0.078125 1.515625l0 2.1875q0 2.28125 0.109375 2.890625q0.109375 0.59375 0.40625 1.15625l-1.703125 0q-0.265625 -0.515625 -0.328125 -1.1875zm-0.140625 -3.671875q-0.890625 0.375 -2.671875 0.625q-1.015625 0.140625 -1.4375 0.328125q-0.421875 0.1875 -0.65625 0.53125q-0.21875 0.34375 -0.21875 0.78125q0 0.65625 0.5 1.09375q0.5 0.4375 1.453125 0.4375q0.9375 0 1.671875 -0.40625q0.75 -0.421875 1.09375 -1.140625q0.265625 -0.5625 0.265625 -1.640625l0 -0.609375zm10.469467 4.859375l0 -1.21875q-0.90625 1.4375 -2.703125 1.4375q-1.15625 0 -2.125 -0.640625q-0.96875 -0.640625 -1.5 -1.78125q-0.53125 -1.140625 -0.53125 -2.625q0 -1.453125 0.484375 -2.625q0.484375 -1.1875 1.4375 -1.8125q0.96875 -0.625 2.171875 -0.625q0.875 0 1.546875 0.375q0.6875 0.359375 1.109375 0.953125l0 -4.796875l1.640625 0l0 13.359375l-1.53125 0zm-5.171875 -4.828125q0 1.859375 0.78125 2.78125q0.78125 0.921875 1.84375 0.921875q1.078125 0 1.828125 -0.875q0.75 -0.890625 0.75 -2.6875q0 -1.984375 -0.765625 -2.90625q-0.765625 -0.9375 -1.890625 -0.9375q-1.078125 0 -1.8125 0.890625q-0.734375 0.890625 -0.734375 2.8125zm8.672592 -0.015625q0 -2.6875 1.484375 -3.96875q1.25 -1.078125 3.046875 -1.078125q2.0 0 3.265625 1.3125q1.265625 1.296875 1.265625 3.609375q0 1.859375 -0.5625 2.9375q-0.5625 1.0625 -1.640625 1.65625q-1.0625 0.59375 -2.328125 0.59375q-2.03125 0 -3.28125 -1.296875q-1.25 -1.3125 -1.25 -3.765625zm1.6875 0q0 1.859375 0.796875 2.796875q0.8125 0.921875 2.046875 0.921875q1.21875 0 2.03125 -0.921875q0.8125 -0.9375 0.8125 -2.84375q0 -1.796875 -0.8125 -2.71875q-0.8125 -0.921875 -2.03125 -0.921875q-1.234375 0 -2.046875 0.921875q-0.796875 0.90625 -0.796875 2.765625zm9.281967 4.84375l0 -9.671875l1.46875 0l0 1.46875q0.5625 -1.03125 1.03125 -1.359375q0.484375 -0.328125 1.0625 -0.328125q0.828125 0 1.6875 0.53125l-0.5625 1.515625q-0.609375 -0.359375 -1.203125 -0.359375q-0.546875 0 -0.96875 0.328125q-0.421875 0.328125 -0.609375 0.890625q-0.28125 0.875 -0.28125 1.921875l0 5.0625l-1.625 0z" fill-rule="nonzero"/><path fill="#000000" fill-opacity="0.0" d="m160.90027 77.031494l65.291336 0l0 34.803154l-65.291336 0z" fill-rule="evenodd"/><path fill="#d9ead3" d="m171.13464 101.35307l0 -9.671875l1.46875 0l0 1.359375q0.453125 -0.71875 1.203125 -1.140625q0.765625 -0.4375 1.71875 -0.4375q1.078125 0 1.765625 0.453125q0.6875 0.4375 0.96875 1.234375q1.15625 -1.6875 2.984375 -1.6875q1.453125 0 2.21875 0.796875q0.78125 0.796875 0.78125 2.453125l0 6.640625l-1.640625 0l0 -6.09375q0 -0.984375 -0.15625 -1.40625q-0.15625 -0.4375 -0.578125 -0.703125q-0.421875 -0.265625 -0.984375 -0.265625q-1.015625 0 -1.6875 0.6875q-0.671875 0.671875 -0.671875 2.15625l0 5.625l-1.640625 0l0 -6.28125q0 -1.09375 -0.40625 -1.640625q-0.40625 -0.546875 -1.3125 -0.546875q-0.6875 0 -1.28125 0.359375q-0.59375 0.359375 -0.859375 1.0625q-0.25 0.703125 -0.25 2.03125l0 5.015625l-1.640625 0zm21.853302 -1.1875q-0.921875 0.765625 -1.765625 1.09375q-0.828125 0.3125 -1.796875 0.3125q-1.59375 0 -2.453125 -0.78125q-0.859375 -0.78125 -0.859375 -1.984375q0 -0.71875 0.328125 -1.296875q0.328125 -0.59375 0.84375 -0.9375q0.53125 -0.359375 1.1875 -0.546875q0.46875 -0.125 1.453125 -0.25q1.984375 -0.234375 2.921875 -0.5625q0.015625 -0.34375 0.015625 -0.421875q0 -1.0 -0.46875 -1.421875q-0.625 -0.546875 -1.875 -0.546875q-1.15625 0 -1.703125 0.40625q-0.546875 0.40625 -0.8125 1.421875l-1.609375 -0.21875q0.21875 -1.015625 0.71875 -1.640625q0.5 -0.640625 1.453125 -0.984375q0.953125 -0.34375 2.1875 -0.34375q1.25 0 2.015625 0.296875q0.78125 0.28125 1.140625 0.734375q0.375 0.4375 0.515625 1.109375q0.078125 0.421875 0.078125 1.515625l0 2.1875q0 2.28125 0.109375 2.890625q0.109375 0.59375 0.40625 1.15625l-1.703125 0q-0.265625 -0.515625 -0.328125 -1.1875zm-0.140625 -3.671875q-0.890625 0.375 -2.671875 0.625q-1.015625 0.140625 -1.4375 0.328125q-0.421875 0.1875 -0.65625 0.53125q-0.21875 0.34375 -0.21875 0.78125q0 0.65625 0.5 1.09375q0.5 0.4375 1.453125 0.4375q0.9375 0 1.671875 -0.40625q0.75 -0.421875 1.09375 -1.140625q0.265625 -0.5625 0.265625 -1.640625l0 -0.609375zm4.203842 -6.609375l0 -1.890625l1.640625 0l0 1.890625l-1.640625 0zm0 11.46875l0 -9.671875l1.640625 0l0 9.671875l-1.640625 0zm4.144821 0l0 -9.671875l1.46875 0l0 1.375q1.0625 -1.59375 3.078125 -1.59375q0.875 0 1.609375 0.3125q0.734375 0.3125 1.09375 0.828125q0.375 0.5 0.515625 1.203125q0.09375 0.453125 0.09375 1.59375l0 5.953125l-1.640625 0l0 -5.890625q0 -1.0 -0.203125 -1.484375q-0.1875 -0.5 -0.671875 -0.796875q-0.484375 -0.296875 -1.140625 -0.296875q-1.046875 0 -1.8125 0.671875q-0.75 0.65625 -0.75 2.515625l0 5.28125l-1.640625 0z" fill-rule="nonzero"/><path fill="#000000" fill-opacity="0.0" d="m153.74672 128.73097l119.59056 0l0 34.803146l-119.59056 0z" fill-rule="evenodd"/><path fill="#cfe2f3" d="m170.2936 149.50568l1.609375 0.21875q-0.265625 1.65625 -1.359375 2.609375q-1.078125 0.9375 -2.671875 0.9375q-1.984375 0 -3.1875 -1.296875q-1.203125 -1.296875 -1.203125 -3.71875q0 -1.578125 0.515625 -2.75q0.515625 -1.171875 1.578125 -1.75q1.0625 -0.59375 2.3125 -0.59375q1.578125 0 2.578125 0.796875q1.0 0.796875 1.28125 2.265625l-1.59375 0.234375q-0.234375 -0.96875 -0.8125 -1.453125q-0.578125 -0.5 -1.390625 -0.5q-1.234375 0 -2.015625 0.890625q-0.78125 0.890625 -0.78125 2.8125q0 1.953125 0.75 2.84375q0.75 0.875 1.953125 0.875q0.96875 0 1.609375 -0.59375q0.65625 -0.59375 0.828125 -1.828125zm2.40625 -1.296875q0 -2.6875 1.484375 -3.96875q1.25 -1.078125 3.046875 -1.078125q2.0 0 3.265625 1.3125q1.265625 1.296875 1.265625 3.609375q0 1.859375 -0.5625 2.9375q-0.5625 1.0625 -1.640625 1.65625q-1.0625 0.59375 -2.328125 0.59375q-2.03125 0 -3.28125 -1.296875q-1.25 -1.3125 -1.25 -3.765625zm1.6875 0q0 1.859375 0.796875 2.796875q0.8125 0.921875 2.046875 0.921875q1.21875 0 2.03125 -0.921875q0.8125 -0.9375 0.8125 -2.84375q0 -1.796875 -0.8125 -2.71875q-0.8125 -0.921875 -2.03125 -0.921875q-1.234375 0 -2.046875 0.921875q-0.796875 0.90625 -0.796875 2.765625zm9.281967 4.84375l0 -9.671875l1.46875 0l0 1.46875q0.5625 -1.03125 1.03125 -1.359375q0.484375 -0.328125 1.0625 -0.328125q0.828125 0 1.6875 0.53125l-0.5625 1.515625q-0.609375 -0.359375 -1.203125 -0.359375q-0.546875 0 -0.96875 0.328125q-0.421875 0.328125 -0.609375 0.890625q-0.28125 0.875 -0.28125 1.921875l0 5.0625l-1.625 0zm12.556427 0l0 -1.421875q-1.125 1.640625 -3.0625 1.640625q-0.859375 0 -1.609375 -0.328125q-0.734375 -0.328125 -1.09375 -0.828125q-0.359375 -0.5 -0.5 -1.21875q-0.109375 -0.46875 -0.109375 -1.53125l0 -5.984375l1.640625 0l0 5.359375q0 1.28125 0.109375 1.734375q0.15625 0.640625 0.65625 1.015625q0.5 0.375 1.234375 0.375q0.734375 0 1.375 -0.375q0.65625 -0.390625 0.921875 -1.03125q0.265625 -0.65625 0.265625 -1.890625l0 -5.1875l1.640625 0l0 9.671875l-1.46875 0zm7.625717 -1.46875l0.234375 1.453125q-0.6875 0.140625 -1.234375 0.140625q-0.890625 0 -1.390625 -0.28125q-0.484375 -0.28125 -0.6875 -0.734375q-0.203125 -0.46875 -0.203125 -1.9375l0 -5.578125l-1.203125 0l0 -1.265625l1.203125 0l0 -2.390625l1.625 -0.984375l0 3.375l1.65625 0l0 1.265625l-1.65625 0l0 5.671875q0 0.6875 0.078125 0.890625q0.09375 0.203125 0.28125 0.328125q0.203125 0.109375 0.578125 0.109375q0.265625 0 0.71875 -0.0625zm1.6051788 -10.0l0 -1.890625l1.640625 0l0 1.890625l-1.640625 0zm0 11.46875l0 -9.671875l1.640625 0l0 9.671875l-1.640625 0zm4.144821 0l0 -9.671875l1.46875 0l0 1.375q1.0625 -1.59375 3.078125 -1.59375q0.875 0 1.609375 0.3125q0.734375 0.3125 1.09375 0.828125q0.375 0.5 0.515625 1.203125q0.09375 0.453125 0.09375 1.59375l0 5.953125l-1.640625 0l0 -5.890625q0 -1.0 -0.203125 -1.484375q-0.1875 -0.5 -0.671875 -0.796875q-0.484375 -0.296875 -1.140625 -0.296875q-1.046875 0 -1.8125 0.671875q-0.75 0.65625 -0.75 2.515625l0 5.28125l-1.640625 0zm16.688217 -1.1875q-0.921875 0.765625 -1.765625 1.09375q-0.828125 0.3125 -1.796875 0.3125q-1.59375 0 -2.453125 -0.78125q-0.859375 -0.78125 -0.859375 -1.984375q0 -0.71875 0.328125 -1.296875q0.328125 -0.59375 0.84375 -0.9375q0.53125 -0.359375 1.1875 -0.546875q0.46875 -0.125 1.453125 -0.25q1.984375 -0.234375 2.921875 -0.5625q0.015625 -0.34375 0.015625 -0.421875q0 -1.0 -0.46875 -1.421875q-0.625 -0.546875 -1.875 -0.546875q-1.15625 0 -1.703125 0.40625q-0.546875 0.40625 -0.8125 1.421875l-1.609375 -0.21875q0.21875 -1.015625 0.71875 -1.640625q0.5 -0.640625 1.453125 -0.984375q0.953125 -0.34375 2.1875 -0.34375q1.25 0 2.015625 0.296875q0.78125 0.28125 1.140625 0.734375q0.375 0.4375 0.515625 1.109375q0.078125 0.421875 0.078125 1.515625l0 2.1875q0 2.28125 0.109375 2.890625q0.109375 0.59375 0.40625 1.15625l-1.703125 0q-0.265625 -0.515625 -0.328125 -1.1875zm-0.140625 -3.671875q-0.890625 0.375 -2.671875 0.625q-1.015625 0.140625 -1.4375 0.328125q-0.421875 0.1875 -0.65625 0.53125q-0.21875 0.34375 -0.21875 0.78125q0 0.65625 0.5 1.09375q0.5 0.4375 1.453125 0.4375q0.9375 0 1.671875 -0.40625q0.75 -0.421875 1.09375 -1.140625q0.265625 -0.5625 0.265625 -1.640625l0 -0.609375zm9.090271 5.09375l0.796875 -3.890625l-1.546875 0l0 -1.359375l1.8125 0l0.671875 -3.296875l-2.484375 0l0 -1.359375l2.765625 0l0.796875 -3.90625l1.359375 0l-0.796875 3.90625l2.875 0l0.796875 -3.90625l1.375 0l-0.796875 3.90625l1.578125 0l0 1.359375l-1.84375 0l-0.6875 3.296875l2.53125 0l0 1.359375l-2.8125 0l-0.78125 3.890625l-1.375 0l0.78125 -3.890625l-2.859375 0l-0.78125 3.890625l-1.375 0zm2.4375 -5.25l2.859375 0l0.6875 -3.296875l-2.875 0l-0.671875 3.296875zm13.953842 5.015625l-1.640625 0l0 -10.453125q-0.59375 0.5625 -1.5625 1.140625q-0.953125 0.5625 -1.71875 0.84375l0 -1.59375q1.375 -0.640625 2.40625 -1.5625q1.03125 -0.921875 1.453125 -1.78125l1.0625 0l0 13.40625z" fill-rule="nonzero"/><path fill="#000000" fill-opacity="0.0" d="m173.1076 184.22047l119.590546 0l0 34.803146l-119.590546 0z" fill-rule="evenodd"/><path fill="#fce5cd" d="m189.65448 204.99518l1.609375 0.21875q-0.265625 1.65625 -1.359375 2.609375q-1.078125 0.9375 -2.671875 0.9375q-1.984375 0 -3.1875 -1.296875q-1.203125 -1.296875 -1.203125 -3.71875q0 -1.578125 0.515625 -2.75q0.515625 -1.171875 1.578125 -1.75q1.0625 -0.59375 2.3125 -0.59375q1.578125 0 2.578125 0.796875q1.0 0.796875 1.28125 2.265625l-1.59375 0.234375q-0.234375 -0.96875 -0.8125 -1.453125q-0.578125 -0.5 -1.390625 -0.5q-1.234375 0 -2.015625 0.890625q-0.78125 0.890625 -0.78125 2.8125q0 1.953125 0.75 2.84375q0.75 0.875 1.953125 0.875q0.96875 0 1.609375 -0.59375q0.65625 -0.59375 0.828125 -1.828125zm2.40625 -1.296875q0 -2.6875 1.484375 -3.96875q1.25 -1.078125 3.046875 -1.078125q2.0 0 3.265625 1.3125q1.265625 1.296875 1.265625 3.609375q0 1.859375 -0.5625 2.9375q-0.5625 1.0625 -1.640625 1.65625q-1.0625 0.59375 -2.328125 0.59375q-2.03125 0 -3.28125 -1.296875q-1.25 -1.3125 -1.25 -3.765625zm1.6875 0q0 1.859375 0.796875 2.796875q0.8125 0.921875 2.046875 0.921875q1.21875 0 2.03125 -0.921875q0.8125 -0.9375 0.8125 -2.84375q0 -1.796875 -0.8125 -2.71875q-0.8125 -0.921875 -2.03125 -0.921875q-1.234375 0 -2.046875 0.921875q-0.796875 0.90625 -0.796875 2.765625zm9.281967 4.84375l0 -9.671875l1.46875 0l0 1.46875q0.5625 -1.03125 1.03125 -1.359375q0.484375 -0.328125 1.0625 -0.328125q0.828125 0 1.6875 0.53125l-0.5625 1.515625q-0.609375 -0.359375 -1.203125 -0.359375q-0.546875 0 -0.96875 0.328125q-0.421875 0.328125 -0.609375 0.890625q-0.28125 0.875 -0.28125 1.921875l0 5.0625l-1.625 0zm12.556427 0l0 -1.421875q-1.125 1.640625 -3.0625 1.640625q-0.859375 0 -1.609375 -0.328125q-0.734375 -0.328125 -1.09375 -0.828125q-0.359375 -0.5 -0.5 -1.21875q-0.109375 -0.46875 -0.109375 -1.53125l0 -5.984375l1.640625 0l0 5.359375q0 1.28125 0.109375 1.734375q0.15625 0.640625 0.65625 1.015625q0.5 0.375 1.234375 0.375q0.734375 0 1.375 -0.375q0.65625 -0.390625 0.921875 -1.03125q0.265625 -0.65625 0.265625 -1.890625l0 -5.1875l1.640625 0l0 9.671875l-1.46875 0zm7.625717 -1.46875l0.234375 1.453125q-0.6875 0.140625 -1.234375 0.140625q-0.890625 0 -1.390625 -0.28125q-0.484375 -0.28125 -0.6875 -0.734375q-0.203125 -0.46875 -0.203125 -1.9375l0 -5.578125l-1.203125 0l0 -1.265625l1.203125 0l0 -2.390625l1.625 -0.984375l0 3.375l1.65625 0l0 1.265625l-1.65625 0l0 5.671875q0 0.6875 0.078125 0.890625q0.09375 0.203125 0.28125 0.328125q0.203125 0.109375 0.578125 0.109375q0.265625 0 0.71875 -0.0625zm1.6051788 -10.0l0 -1.890625l1.640625 0l0 1.890625l-1.640625 0zm0 11.46875l0 -9.671875l1.640625 0l0 9.671875l-1.640625 0zm4.144821 0l0 -9.671875l1.46875 0l0 1.375q1.0625 -1.59375 3.078125 -1.59375q0.875 0 1.609375 0.3125q0.734375 0.3125 1.09375 0.828125q0.375 0.5 0.515625 1.203125q0.09375 0.453125 0.09375 1.59375l0 5.953125l-1.640625 0l0 -5.890625q0 -1.0 -0.203125 -1.484375q-0.1875 -0.5 -0.671875 -0.796875q-0.484375 -0.296875 -1.140625 -0.296875q-1.046875 0 -1.8125 0.671875q-0.75 0.65625 -0.75 2.515625l0 5.28125l-1.640625 0zm16.688217 -1.1875q-0.921875 0.765625 -1.765625 1.09375q-0.828125 0.3125 -1.796875 0.3125q-1.59375 0 -2.453125 -0.78125q-0.859375 -0.78125 -0.859375 -1.984375q0 -0.71875 0.328125 -1.296875q0.328125 -0.59375 0.84375 -0.9375q0.53125 -0.359375 1.1875 -0.546875q0.46875 -0.125 1.453125 -0.25q1.984375 -0.234375 2.921875 -0.5625q0.015625 -0.34375 0.015625 -0.421875q0 -1.0 -0.46875 -1.421875q-0.625 -0.546875 -1.875 -0.546875q-1.15625 0 -1.703125 0.40625q-0.546875 0.40625 -0.8125 1.421875l-1.609375 -0.21875q0.21875 -1.015625 0.71875 -1.640625q0.5 -0.640625 1.453125 -0.984375q0.953125 -0.34375 2.1875 -0.34375q1.25 0 2.015625 0.296875q0.78125 0.28125 1.140625 0.734375q0.375 0.4375 0.515625 1.109375q0.078125 0.421875 0.078125 1.515625l0 2.1875q0 2.28125 0.109375 2.890625q0.109375 0.59375 0.40625 1.15625l-1.703125 0q-0.265625 -0.515625 -0.328125 -1.1875zm-0.140625 -3.671875q-0.890625 0.375 -2.671875 0.625q-1.015625 0.140625 -1.4375 0.328125q-0.421875 0.1875 -0.65625 0.53125q-0.21875 0.34375 -0.21875 0.78125q0 0.65625 0.5 1.09375q0.5 0.4375 1.453125 0.4375q0.9375 0 1.671875 -0.40625q0.75 -0.421875 1.09375 -1.140625q0.265625 -0.5625 0.265625 -1.640625l0 -0.609375zm9.090271 5.09375l0.796875 -3.890625l-1.546875 0l0 -1.359375l1.8125 0l0.67189026 -3.296875l-2.4843903 0l0 -1.359375l2.7656403 0l0.796875 -3.90625l1.359375 0l-0.796875 3.90625l2.875 0l0.796875 -3.90625l1.375 0l-0.796875 3.90625l1.578125 0l0 1.359375l-1.84375 0l-0.6875 3.296875l2.53125 0l0 1.359375l-2.8125 0l-0.78125 3.890625l-1.375 0l0.78125 -3.890625l-2.859375 0l-0.78126526 3.890625l-1.375 0zm2.4375153 -5.25l2.859375 0l0.6875 -3.296875l-2.875 0l-0.671875 3.296875zm16.391327 3.4375l0 1.578125l-8.828125 0q-0.015625 -0.59375 0.1875 -1.140625q0.34375 -0.90625 1.078125 -1.78125q0.75 -0.875 2.15625 -2.015625q2.171875 -1.78125 2.9375 -2.828125q0.765625 -1.046875 0.765625 -1.96875q0 -0.984375 -0.703125 -1.640625q-0.6875 -0.671875 -1.8125 -0.671875q-1.1875 0 -1.90625 0.71875q-0.703125 0.703125 -0.703125 1.953125l-1.6875 -0.171875q0.171875 -1.890625 1.296875 -2.875q1.140625 -0.984375 3.03125 -0.984375q1.921875 0 3.046875 1.0625q1.125 1.0625 1.125 2.640625q0 0.796875 -0.328125 1.578125q-0.328125 0.78125 -1.09375 1.640625q-0.75 0.84375 -2.53125 2.34375q-1.46875 1.234375 -1.890625 1.6875q-0.421875 0.4375 -0.6875 0.875l6.546875 0z" fill-rule="nonzero"/><path fill="#000000" fill-opacity="0.0" d="m116.64042 43.17323l788.78735 0" fill-rule="evenodd"/><path stroke="#cccccc" stroke-width="2.0" stroke-linejoin="round" stroke-linecap="butt" d="m116.64042 43.17323l788.78735 0" fill-rule="evenodd"/><path fill="#fff2cc" d="m130.57217 36.643105l0 0c0 -1.68153 1.3631592 -3.0446777 3.0446777 -3.0446777l98.38309 0c0.8074951 0 1.5819244 0.3207779 2.1529083 0.8917656c0.57099915 0.5709877 0.8917694 1.3454132 0.8917694 2.1529121l0 12.178356c0 1.68153 -1.3631439 3.0446815 -3.0446777 3.0446815l-98.38309 0c-1.6815186 0 -3.0446777 -1.3631516 -3.0446777 -3.0446815z" fill-rule="evenodd"/><path stroke="#cccccc" stroke-width="2.0" stroke-linejoin="round" stroke-linecap="butt" d="m130.57217 36.643105l0 0c0 -1.68153 1.3631592 -3.0446777 3.0446777 -3.0446777l98.38309 0c0.8074951 0 1.5819244 0.3207779 2.1529083 0.8917656c0.57099915 0.5709877 0.8917694 1.3454132 0.8917694 2.1529121l0 12.178356c0 1.68153 -1.3631439 3.0446815 -3.0446777 3.0446815l-98.38309 0c-1.6815186 0 -3.0446777 -1.3631516 -3.0446777 -3.0446815z" fill-rule="evenodd"/><path fill="#fff2cc" d="m406.021 37.54337l0 0c0 -1.68153 1.3631592 -3.0446815 3.0446777 -3.0446815l107.26495 0c0.8074951 0 1.5819702 0.3207779 2.152954 0.8917656c0.5709839 0.5709877 0.89172363 1.345417 0.89172363 2.152916l0 12.178356c0 1.68153 -1.3630981 3.0446777 -3.0446777 3.0446777l-107.26495 0c-1.6815186 0 -3.0446777 -1.3631477 -3.0446777 -3.0446777z" fill-rule="evenodd"/><path stroke="#cccccc" stroke-width="2.0" stroke-linejoin="round" stroke-linecap="butt" d="m406.021 37.54337l0 0c0 -1.68153 1.3631592 -3.0446815 3.0446777 -3.0446815l107.26495 0c0.8074951 0 1.5819702 0.3207779 2.152954 0.8917656c0.5709839 0.5709877 0.89172363 1.345417 0.89172363 2.152916l0 12.178356c0 1.68153 -1.3630981 3.0446777 -3.0446777 3.0446777l-107.26495 0c-1.6815186 0 -3.0446777 -1.3631477 -3.0446777 -3.0446777z" fill-rule="evenodd"/><path fill="#fff2cc" d="m576.7139 37.54337l0 0c0 -1.68153 1.3631592 -3.0446815 3.0446777 -3.0446815l55.07599 0c0.8074951 0 1.5819092 0.3207779 2.152893 0.8917656c0.5709839 0.5709877 0.89178467 1.345417 0.89178467 2.152916l0 12.178356c0 1.68153 -1.3631592 3.0446777 -3.0446777 3.0446777l-55.07599 0c-1.6815186 0 -3.0446777 -1.3631477 -3.0446777 -3.0446777z" fill-rule="evenodd"/><path stroke="#cccccc" stroke-width="2.0" stroke-linejoin="round" stroke-linecap="butt" d="m576.7139 37.54337l0 0c0 -1.68153 1.3631592 -3.0446815 3.0446777 -3.0446815l55.07599 0c0.8074951 0 1.5819092 0.3207779 2.152893 0.8917656c0.5709839 0.5709877 0.89178467 1.345417 0.89178467 2.152916l0 12.178356c0 1.68153 -1.3631592 3.0446777 -3.0446777 3.0446777l-55.07599 0c-1.6815186 0 -3.0446777 -1.3631477 -3.0446777 -3.0446777z" fill-rule="evenodd"/><path fill="#fff2cc" d="m836.0525 37.54337l0 0c0 -1.68153 1.3631592 -3.0446815 3.0446777 -3.0446815l41.028748 0c0.8074951 0 1.5819092 0.3207779 2.152893 0.8917656c0.5710449 0.5709877 0.89178467 1.345417 0.89178467 2.152916l0 12.178356c0 1.68153 -1.3631592 3.0446777 -3.0446777 3.0446777l-41.028748 0l0 0c-1.6815186 0 -3.0446777 -1.3631477 -3.0446777 -3.0446777z" fill-rule="evenodd"/><path stroke="#cccccc" stroke-width="2.0" stroke-linejoin="round" stroke-linecap="butt" d="m836.0525 37.54337l0 0c0 -1.68153 1.3631592 -3.0446815 3.0446777 -3.0446815l41.028748 0c0.8074951 0 1.5819092 0.3207779 2.152893 0.8917656c0.5710449 0.5709877 0.89178467 1.345417 0.89178467 2.152916l0 12.178356c0 1.68153 -1.3631592 3.0446777 -3.0446777 3.0446777l-41.028748 0l0 0c-1.6815186 0 -3.0446777 -1.3631477 -3.0446777 -3.0446777z" fill-rule="evenodd"/><path fill="#000000" fill-opacity="0.0" d="m235.06561 94.944885l670.3622 0" fill-rule="evenodd"/><path stroke="#cccccc" stroke-width="2.0" stroke-linejoin="round" stroke-linecap="butt" d="m235.06561 94.944885l670.3622 0" fill-rule="evenodd"/><path fill="#d9ead3" d="m235.06561 88.855705l0 0c0 -1.6815338 1.3631592 -3.0446854 3.0446777 -3.0446854l133.21774 0c0.8074951 0 1.5819092 0.3207779 2.152893 0.8917694c0.5709839 0.5709915 0.89178467 1.3454132 0.89178467 2.152916l0 12.178352c0 1.6815338 -1.3631592 3.0446854 -3.0446777 3.0446854l-133.21774 0c-1.6815186 0 -3.0446777 -1.3631516 -3.0446777 -3.0446854z" fill-rule="evenodd"/><path stroke="#cccccc" stroke-width="2.0" stroke-linejoin="round" stroke-linecap="butt" d="m235.06561 88.855705l0 0c0 -1.6815338 1.3631592 -3.0446854 3.0446777 -3.0446854l133.21774 0c0.8074951 0 1.5819092 0.3207779 2.152893 0.8917694c0.5709839 0.5709915 0.89178467 1.3454132 0.89178467 2.152916l0 12.178352c0 1.6815338 -1.3631592 3.0446854 -3.0446777 3.0446854l-133.21774 0c-1.6815186 0 -3.0446777 -1.3631516 -3.0446777 -3.0446854z" fill-rule="evenodd"/><path fill="#d9ead3" d="m519.38055 88.855705l0 0c0 -1.6815338 1.3631592 -3.0446854 3.0446777 -3.0446854l51.265015 0c0.8074951 0 1.5819092 0.3207779 2.152893 0.8917694c0.5709839 0.5709915 0.89178467 1.3454132 0.89178467 2.152916l0 12.178352c0 1.6815338 -1.3631592 3.0446854 -3.0446777 3.0446854l-51.265015 0c-1.6815186 0 -3.0446777 -1.3631516 -3.0446777 -3.0446854z" fill-rule="evenodd"/><path stroke="#cccccc" stroke-width="2.0" stroke-linejoin="round" stroke-linecap="butt" d="m519.38055 88.855705l0 0c0 -1.6815338 1.3631592 -3.0446854 3.0446777 -3.0446854l51.265015 0c0.8074951 0 1.5819092 0.3207779 2.152893 0.8917694c0.5709839 0.5709915 0.89178467 1.3454132 0.89178467 2.152916l0 12.178352c0 1.6815338 -1.3631592 3.0446854 -3.0446777 3.0446854l-51.265015 0c-1.6815186 0 -3.0446777 -1.3631516 -3.0446777 -3.0446854z" fill-rule="evenodd"/><path fill="#d9ead3" d="m727.04724 88.343895l0 0c0 -1.6815338 1.3631592 -3.0446854 3.0446777 -3.0446854l102.95001 0c0.8074951 0 1.5819092 0.3207779 2.152893 0.8917694c0.5709839 0.5709915 0.89178467 1.3454132 0.89178467 2.152916l0 12.178352c0 1.6815338 -1.3631592 3.0446854 -3.0446777 3.0446854l-102.95001 0c-1.6815186 0 -3.0446777 -1.3631516 -3.0446777 -3.0446854z" fill-rule="evenodd"/><path stroke="#cccccc" stroke-width="2.0" stroke-linejoin="round" stroke-linecap="butt" d="m727.04724 88.343895l0 0c0 -1.6815338 1.3631592 -3.0446854 3.0446777 -3.0446854l102.95001 0c0.8074951 0 1.5819092 0.3207779 2.152893 0.8917694c0.5709839 0.5709915 0.89178467 1.3454132 0.89178467 2.152916l0 12.178352c0 1.6815338 -1.3631592 3.0446854 -3.0446777 3.0446854l-102.95001 0c-1.6815186 0 -3.0446777 -1.3631516 -3.0446777 -3.0446854z" fill-rule="evenodd"/><path fill="#000000" fill-opacity="0.0" d="m265.33728 147.17061l431.24408 0" fill-rule="evenodd"/><path stroke="#cccccc" stroke-width="2.0" stroke-linejoin="round" stroke-linecap="butt" d="m265.33728 147.17061l431.24408 0" fill-rule="evenodd"/><path fill="#cfe2f3" d="m265.33728 140.04337l0 0c0 -1.6815338 1.3631287 -3.0446777 3.0446777 -3.0446777l91.422455 0c0.8074951 0 1.5819092 0.32077026 2.152893 0.8917694c0.5709839 0.5709839 0.89178467 1.3454132 0.89178467 2.1529083l0 12.17836c0 1.6815338 -1.3631592 3.0446777 -3.0446777 3.0446777l-91.422455 0l0 0c-1.6815491 0 -3.0446777 -1.3631439 -3.0446777 -3.0446777z" fill-rule="evenodd"/><path stroke="#cccccc" stroke-width="2.0" stroke-linejoin="round" stroke-linecap="butt" d="m265.33728 140.04337l0 0c0 -1.6815338 1.3631287 -3.0446777 3.0446777 -3.0446777l91.422455 0c0.8074951 0 1.5819092 0.32077026 2.152893 0.8917694c0.5709839 0.5709839 0.89178467 1.3454132 0.89178467 2.1529083l0 12.17836c0 1.6815338 -1.3631592 3.0446777 -3.0446777 3.0446777l-91.422455 0l0 0c-1.6815491 0 -3.0446777 -1.3631439 -3.0446777 -3.0446777z" fill-rule="evenodd"/><path fill="#cfe2f3" d="m639.22705 141.08142l0 0c0 -1.6815186 1.3631592 -3.0446777 3.0446777 -3.0446777l51.264954 0c0.8074951 0 1.5819092 0.32078552 2.152893 0.8917694c0.5709839 0.5709839 0.89178467 1.3454132 0.89178467 2.1529083l0 12.17836c0 1.6815338 -1.3631592 3.0446777 -3.0446777 3.0446777l-51.264954 0c-1.6815186 0 -3.0446777 -1.3631439 -3.0446777 -3.0446777z" fill-rule="evenodd"/><path stroke="#cccccc" stroke-width="2.0" stroke-linejoin="round" stroke-linecap="butt" d="m639.22705 141.08142l0 0c0 -1.6815186 1.3631592 -3.0446777 3.0446777 -3.0446777l51.264954 0c0.8074951 0 1.5819092 0.32078552 2.152893 0.8917694c0.5709839 0.5709839 0.89178467 1.3454132 0.89178467 2.1529083l0 12.17836c0 1.6815338 -1.3631592 3.0446777 -3.0446777 3.0446777l-51.264954 0c-1.6815186 0 -3.0446777 -1.3631439 -3.0446777 -3.0446777z" fill-rule="evenodd"/><path fill="#000000" fill-opacity="0.0" d="m286.44095 201.62204l618.55115 0" fill-rule="evenodd"/><path stroke="#cccccc" stroke-width="2.0" stroke-linejoin="round" stroke-linecap="butt" d="m286.44095 201.62204l618.55115 0" fill-rule="evenodd"/><path fill="#fce5cd" d="m286.44095 195.53287l0 0c0 -1.6815338 1.3631592 -3.0446777 3.0446777 -3.0446777l91.422455 0c0.8074951 0 1.5819092 0.32077026 2.1529236 0.8917694c0.5709839 0.5709839 0.89175415 1.3454132 0.89175415 2.1529083l0 12.17836c0 1.6815338 -1.3631592 3.0446777 -3.0446777 3.0446777l-91.422455 0l0 0c-1.6815186 0 -3.0446777 -1.3631439 -3.0446777 -3.0446777z" fill-rule="evenodd"/><path stroke="#cccccc" stroke-width="2.0" stroke-linejoin="round" stroke-linecap="butt" d="m286.44095 195.53287l0 0c0 -1.6815338 1.3631592 -3.0446777 3.0446777 -3.0446777l91.422455 0c0.8074951 0 1.5819092 0.32077026 2.1529236 0.8917694c0.5709839 0.5709839 0.89175415 1.3454132 0.89175415 2.1529083l0 12.17836c0 1.6815338 -1.3631592 3.0446777 -3.0446777 3.0446777l-91.422455 0l0 0c-1.6815186 0 -3.0446777 -1.3631439 -3.0446777 -3.0446777z" fill-rule="evenodd"/><path fill="#000000" fill-opacity="0.0" d="m349.76904 247.24672l558.83466 0" fill-rule="evenodd"/><path stroke="#cccccc" stroke-width="2.0" stroke-linejoin="round" stroke-linecap="butt" d="m349.76904 247.24672l558.83466 0" fill-rule="evenodd"/><path fill="#d9d2e9" d="m349.76904 241.15755l0 0c0 -1.6815338 1.3631287 -3.044693 3.0446777 -3.044693l51.264954 0c0.8074951 0 1.5819397 0.32078552 2.1529236 0.8917694c0.5709839 0.57099915 0.89175415 1.3454132 0.89175415 2.1529236l0 12.178345c0 1.6815338 -1.3631287 3.044693 -3.0446777 3.044693l-51.264954 0c-1.6815491 0 -3.0446777 -1.3631592 -3.0446777 -3.044693z" fill-rule="evenodd"/><path stroke="#cccccc" stroke-width="2.0" stroke-linejoin="round" stroke-linecap="butt" d="m349.76904 241.15755l0 0c0 -1.6815338 1.3631287 -3.044693 3.0446777 -3.044693l51.264954 0c0.8074951 0 1.5819397 0.32078552 2.1529236 0.8917694c0.5709839 0.57099915 0.89175415 1.3454132 0.89175415 2.1529236l0 12.178345c0 1.6815338 -1.3631287 3.044693 -3.0446777 3.044693l-51.264954 0c-1.6815491 0 -3.0446777 -1.3631592 -3.0446777 -3.044693z" fill-rule="evenodd"/><path fill="#d9d2e9" d="m675.6588 241.46725l0 0c0 -1.6815338 1.3631592 -3.0446777 3.0446777 -3.0446777l98.38306 0c0.8074951 0 1.5819092 0.32077026 2.152893 0.89175415c0.5710449 0.57099915 0.89178467 1.3454285 0.89178467 2.1529236l0 12.17836c0 1.6815186 -1.3631592 3.0446625 -3.0446777 3.0446625l-98.38306 0c-1.6815186 0 -3.0446777 -1.3631439 -3.0446777 -3.0446625z" fill-rule="evenodd"/><path stroke="#cccccc" stroke-width="2.0" stroke-linejoin="round" stroke-linecap="butt" d="m675.6588 241.46725l0 0c0 -1.6815338 1.3631592 -3.0446777 3.0446777 -3.0446777l98.38306 0c0.8074951 0 1.5819092 0.32077026 2.152893 0.89175415c0.5710449 0.57099915 0.89178467 1.3454285 0.89178467 2.1529236l0 12.17836c0 1.6815186 -1.3631592 3.0446625 -3.0446777 3.0446625l-98.38306 0c-1.6815186 0 -3.0446777 -1.3631439 -3.0446777 -3.0446625z" fill-rule="evenodd"/><path fill="#000000" fill-opacity="0.0" d="m230.17848 229.84514l119.59056 0l0 34.803146l-119.59056 0z" fill-rule="evenodd"/><path fill="#ead1dc" d="m246.72536 250.61984l1.609375 0.21875q-0.265625 1.65625 -1.359375 2.609375q-1.078125 0.9375 -2.671875 0.9375q-1.984375 0 -3.1875 -1.296875q-1.203125 -1.296875 -1.203125 -3.71875q0 -1.578125 0.515625 -2.75q0.515625 -1.171875 1.578125 -1.75q1.0625 -0.59375 2.3125 -0.59375q1.578125 0 2.578125 0.796875q1.0 0.796875 1.28125 2.265625l-1.59375 0.234375q-0.234375 -0.96875 -0.8125 -1.453125q-0.578125 -0.5 -1.390625 -0.5q-1.234375 0 -2.015625 0.890625q-0.78125 0.890625 -0.78125 2.8125q0 1.953125 0.75 2.84375q0.75 0.875 1.953125 0.875q0.96875 0 1.609375 -0.59375q0.65625 -0.59375 0.828125 -1.828125zm2.40625 -1.296875q0 -2.6875 1.484375 -3.96875q1.25 -1.078125 3.046875 -1.078125q2.0 0 3.2656097 1.3125q1.265625 1.296875 1.265625 3.609375q0 1.859375 -0.5625 2.9375q-0.5625 1.0625 -1.6406097 1.65625q-1.0625 0.59375 -2.328125 0.59375q-2.03125 0 -3.28125 -1.296875q-1.25 -1.3125 -1.25 -3.765625zm1.6875 0q0 1.859375 0.796875 2.796875q0.8125 0.921875 2.046875 0.921875q1.21875 0 2.03125 -0.921875q0.81248474 -0.9375 0.81248474 -2.84375q0 -1.796875 -0.81248474 -2.71875q-0.8125 -0.921875 -2.03125 -0.921875q-1.234375 0 -2.046875 0.921875q-0.796875 0.90625 -0.796875 2.765625zm9.281967 4.84375l0 -9.671875l1.46875 0l0 1.46875q0.5625 -1.03125 1.03125 -1.359375q0.484375 -0.328125 1.0625 -0.328125q0.828125 0 1.6875 0.53125l-0.5625 1.515625q-0.609375 -0.359375 -1.203125 -0.359375q-0.546875 0 -0.96875 0.328125q-0.421875 0.328125 -0.609375 0.890625q-0.28125 0.875 -0.28125 1.921875l0 5.0625l-1.625 0zm12.556427 0l0 -1.421875q-1.125 1.640625 -3.0625 1.640625q-0.859375 0 -1.609375 -0.328125q-0.734375 -0.328125 -1.09375 -0.828125q-0.359375 -0.5 -0.5 -1.21875q-0.109375 -0.46875 -0.109375 -1.53125l0 -5.984375l1.640625 0l0 5.359375q0 1.28125 0.109375 1.734375q0.15625 0.640625 0.65625 1.015625q0.5 0.375 1.234375 0.375q0.734375 0 1.375 -0.375q0.65625 -0.390625 0.921875 -1.03125q0.265625 -0.65625 0.265625 -1.890625l0 -5.1875l1.640625 0l0 9.671875l-1.46875 0zm7.625702 -1.46875l0.234375 1.453125q-0.6875 0.140625 -1.234375 0.140625q-0.890625 0 -1.390625 -0.28125q-0.484375 -0.28125 -0.6875 -0.734375q-0.203125 -0.46875 -0.203125 -1.9375l0 -5.578125l-1.203125 0l0 -1.265625l1.203125 0l0 -2.390625l1.625 -0.984375l0 3.375l1.65625 0l0 1.265625l-1.65625 0l0 5.671875q0 0.6875 0.078125 0.890625q0.09375 0.203125 0.28125 0.328125q0.203125 0.109375 0.578125 0.109375q0.265625 0 0.71875 -0.0625zm1.6051941 -10.0l0 -1.890625l1.640625 0l0 1.890625l-1.640625 0zm0 11.46875l0 -9.671875l1.640625 0l0 9.671875l-1.640625 0zm4.144806 0l0 -9.671875l1.46875 0l0 1.375q1.0625 -1.59375 3.078125 -1.59375q0.875 0 1.609375 0.3125q0.734375 0.3125 1.09375 0.828125q0.375 0.5 0.515625 1.203125q0.09375 0.453125 0.09375 1.59375l0 5.953125l-1.640625 0l0 -5.890625q0 -1.0 -0.203125 -1.484375q-0.1875 -0.5 -0.671875 -0.796875q-0.484375 -0.296875 -1.140625 -0.296875q-1.046875 0 -1.8125 0.671875q-0.75 0.65625 -0.75 2.515625l0 5.28125l-1.640625 0zm16.688232 -1.1875q-0.921875 0.765625 -1.765625 1.09375q-0.828125 0.3125 -1.796875 0.3125q-1.59375 0 -2.453125 -0.78125q-0.859375 -0.78125 -0.859375 -1.984375q0 -0.71875 0.328125 -1.296875q0.328125 -0.59375 0.84375 -0.9375q0.53125 -0.359375 1.1875 -0.546875q0.46875 -0.125 1.453125 -0.25q1.984375 -0.234375 2.921875 -0.5625q0.015625 -0.34375 0.015625 -0.421875q0 -1.0 -0.46875 -1.421875q-0.625 -0.546875 -1.875 -0.546875q-1.15625 0 -1.703125 0.40625q-0.546875 0.40625 -0.8125 1.421875l-1.609375 -0.21875q0.21875 -1.015625 0.71875 -1.640625q0.5 -0.640625 1.453125 -0.984375q0.953125 -0.34375 2.1875 -0.34375q1.25 0 2.015625 0.296875q0.78125 0.28125 1.140625 0.734375q0.375 0.4375 0.515625 1.109375q0.078125 0.421875 0.078125 1.515625l0 2.1875q0 2.28125 0.109375 2.890625q0.109375 0.59375 0.40625 1.15625l-1.703125 0q-0.265625 -0.515625 -0.328125 -1.1875zm-0.140625 -3.671875q-0.890625 0.375 -2.671875 0.625q-1.015625 0.140625 -1.4375 0.328125q-0.421875 0.1875 -0.65625 0.53125q-0.21875 0.34375 -0.21875 0.78125q0 0.65625 0.5 1.09375q0.5 0.4375 1.453125 0.4375q0.9375 0 1.671875 -0.40625q0.75 -0.421875 1.09375 -1.140625q0.265625 -0.5625 0.265625 -1.640625l0 -0.609375zm9.090271 5.09375l0.796875 -3.890625l-1.546875 0l0 -1.359375l1.8125 0l0.671875 -3.296875l-2.484375 0l0 -1.359375l2.765625 0l0.796875 -3.90625l1.359375 0l-0.796875 3.90625l2.875 0l0.796875 -3.90625l1.375 0l-0.796875 3.90625l1.578125 0l0 1.359375l-1.84375 0l-0.6875 3.296875l2.53125 0l0 1.359375l-2.8125 0l-0.78125 3.890625l-1.375 0l0.78125 -3.890625l-2.859375 0l-0.78125 3.890625l-1.375 0zm2.4375 -5.25l2.859375 0l0.6875 -3.296875l-2.875 0l-0.671875 3.296875zm7.781952 1.484375l1.640625 -0.21875q0.28125 1.40625 0.953125 2.015625q0.6875 0.609375 1.65625 0.609375q1.15625 0 1.953125 -0.796875q0.796875 -0.796875 0.796875 -1.984375q0 -1.125 -0.734375 -1.859375q-0.734375 -0.734375 -1.875 -0.734375q-0.46875 0 -1.15625 0.171875l0.1875 -1.4375q0.15625 0.015625 0.265625 0.015625q1.046875 0 1.875 -0.546875q0.84375 -0.546875 0.84375 -1.671875q0 -0.90625 -0.609375 -1.5q-0.609375 -0.59375 -1.578125 -0.59375q-0.953125 0 -1.59375 0.609375q-0.640625 0.59375 -0.8125 1.796875l-1.640625 -0.296875q0.296875 -1.640625 1.359375 -2.546875q1.0625 -0.90625 2.65625 -0.90625q1.09375 0 2.0 0.46875q0.921875 0.46875 1.40625 1.28125q0.5 0.8125 0.5 1.71875q0 0.859375 -0.46875 1.578125q-0.46875 0.703125 -1.375 1.125q1.1875 0.28125 1.84375 1.140625q0.65625 0.859375 0.65625 2.15625q0 1.734375 -1.28125 2.953125q-1.265625 1.21875 -3.21875 1.21875q-1.765625 0 -2.921875 -1.046875q-1.15625 -1.046875 -1.328125 -2.71875z" fill-rule="nonzero"/><path fill="#000000" fill-opacity="0.0" d="m265.31235 148.37534l0.3779297 -55.21261" fill-rule="evenodd"/><path stroke="#ff0000" stroke-width="2.0" stroke-linejoin="round" stroke-linecap="butt" stroke-dasharray="8.0,6.0" d="m265.36423 140.7955l0.27416992 -40.052948" fill-rule="evenodd"/><path fill="#ff0000" stroke="#ff0000" stroke-width="2.0" stroke-linecap="butt" d="m265.31918 147.37535c-1.8169861 -0.012435913 -3.2798462 -1.4954681 -3.267395 -3.312439c0.012420654 -1.8169708 1.4954529 -3.2798462 3.312439 -3.2674103c1.8169556 0.012435913 3.2798462 1.4954681 3.267395 3.3124542c-0.012420654 1.8169708 -1.4954529 3.279831 -3.312439 3.267395z" fill-rule="nonzero"/><path fill="#ff0000" stroke="#ff0000" stroke-width="2.0" stroke-linecap="butt" d="m265.68344 94.162704c1.8169861 0.012435913 3.2798462 1.4954681 3.267395 3.3124466c-0.012420654 1.8169708 -1.4954529 3.2798386 -3.312439 3.2674026c-1.8169556 -0.0124435425 -3.2798462 -1.4954681 -3.267395 -3.3124466c0.012420654 -1.8169708 1.4954529 -3.2798386 3.312439 -3.2674026z" fill-rule="nonzero"/><path fill="#000000" fill-opacity="0.0" d="m286.6299 203.58792l0 -109.66929" fill-rule="evenodd"/><path stroke="#ff0000" stroke-width="2.0" stroke-linejoin="round" stroke-linecap="butt" stroke-dasharray="8.0,6.0" d="m286.6299 196.00793l0 -94.5093" fill-rule="evenodd"/><path fill="#ff0000" stroke="#ff0000" stroke-width="2.0" stroke-linecap="butt" d="m286.6299 202.58792c-1.8170166 0 -3.289978 -1.4729767 -3.289978 -3.2899933c0 -1.8170166 1.4729614 -3.2900085 3.289978 -3.2900085c1.8170166 0 3.2900085 1.472992 3.2900085 3.2900085c0 1.8170166 -1.472992 3.2899933 -3.2900085 3.2899933z" fill-rule="nonzero"/><path fill="#ff0000" stroke="#ff0000" stroke-width="2.0" stroke-linecap="butt" d="m286.6299 94.91863c1.8170166 0 3.2900085 1.4729843 3.2900085 3.290001c0 1.8170166 -1.472992 3.290001 -3.2900085 3.290001c-1.8170166 0 -3.289978 -1.4729843 -3.289978 -3.290001c0 -1.8170166 1.4729614 -3.290001 3.289978 -3.290001z" fill-rule="nonzero"/><path fill="#000000" fill-opacity="0.0" d="m350.22046 248.61942l0 -49.637787" fill-rule="evenodd"/><path stroke="#ff0000" stroke-width="2.0" stroke-linejoin="round" stroke-linecap="butt" stroke-dasharray="8.0,6.0" d="m350.22046 241.03943l0 -34.477814" fill-rule="evenodd"/><path fill="#ff0000" stroke="#ff0000" stroke-width="2.0" stroke-linecap="butt" d="m350.22046 247.61942c-1.8170166 0 -3.289978 -1.4729767 -3.289978 -3.2899933c0 -1.8170166 1.4729614 -3.2899933 3.289978 -3.2899933c1.8170166 0 3.2900085 1.4729767 3.2900085 3.2899933c0 1.8170166 -1.472992 3.2899933 -3.2900085 3.2899933z" fill-rule="nonzero"/><path fill="#ff0000" stroke="#ff0000" stroke-width="2.0" stroke-linecap="butt" d="m350.22046 199.98163c1.8170166 0 3.2900085 1.4729767 3.2900085 3.2899933c0 1.8170166 -1.472992 3.2900085 -3.2900085 3.2900085c-1.8170166 0 -3.289978 -1.472992 -3.289978 -3.2900085c0 -1.8170166 1.4729614 -3.2899933 3.289978 -3.2899933z" fill-rule="nonzero"/><path fill="#000000" fill-opacity="0.0" d="m235.09973 93.91863l0.3779602 -55.212597" fill-rule="evenodd"/><path stroke="#ff0000" stroke-width="2.0" stroke-linejoin="round" stroke-linecap="butt" stroke-dasharray="8.0,6.0" d="m235.15161 86.338806l0.27420044 -40.052948" fill-rule="evenodd"/><path fill="#ff0000" stroke="#ff0000" stroke-width="2.0" stroke-linecap="butt" d="m235.10658 92.918655c-1.8169708 -0.012435913 -3.2798462 -1.4954681 -3.267395 -3.312439c0.012435913 -1.8169785 1.4954681 -3.2798386 3.312439 -3.2674026c1.8169708 0.012435913 3.279831 1.4954681 3.267395 3.3124466c-0.012435913 1.8169708 -1.4954681 3.2798386 -3.312439 3.267395z" fill-rule="nonzero"/><path fill="#ff0000" stroke="#ff0000" stroke-width="2.0" stroke-linecap="butt" d="m235.47084 39.706013c1.8169861 0.012439728 3.2798462 1.4954681 3.2674103 3.3124428c-0.012435913 1.8169746 -1.4954681 3.2798424 -3.3124542 3.2674026c-1.8169708 -0.012435913 -3.279831 -1.4954681 -3.267395 -3.3124428c0.012435913 -1.8169746 1.4954681 -3.2798386 3.312439 -3.2674026z" fill-rule="nonzero"/><path fill="#000000" fill-opacity="0.0" d="m408.29398 246.8819l0 -205.10237" fill-rule="evenodd"/><path stroke="#ff0000" stroke-width="2.0" stroke-linejoin="round" stroke-linecap="butt" stroke-dasharray="8.0,6.0" d="m408.29398 239.3019l0 -189.94237" fill-rule="evenodd"/><path fill="#ff0000" stroke="#ff0000" stroke-width="2.0" stroke-linecap="butt" d="m408.29398 245.8819c-1.8170166 0 -3.2900085 -1.472992 -3.2900085 -3.2900085c0 -1.8170166 1.472992 -3.2899933 3.2900085 -3.2899933c1.8170166 0 3.289978 1.4729767 3.289978 3.2899933c0 1.8170166 -1.4729614 3.2900085 -3.289978 3.2900085z" fill-rule="nonzero"/><path fill="#ff0000" stroke="#ff0000" stroke-width="2.0" stroke-linecap="butt" d="m408.29398 42.779526c1.8170166 0 3.289978 1.4729843 3.289978 3.290001c0 1.8170166 -1.4729614 3.290001 -3.289978 3.290001c-1.8170166 0 -3.2900085 -1.4729843 -3.2900085 -3.290001c0 -1.8170166 1.472992 -3.290001 3.2900085 -3.290001z" fill-rule="nonzero"/><path fill="#000000" fill-opacity="0.0" d="m519.3753 96.99213l0.37799072 -55.2126" fill-rule="evenodd"/><path stroke="#ff0000" stroke-width="2.0" stroke-linejoin="round" stroke-linecap="butt" stroke-dasharray="8.0,6.0" d="m519.4272 89.4123l0.27423096 -40.05295" fill-rule="evenodd"/><path fill="#ff0000" stroke="#ff0000" stroke-width="2.0" stroke-linecap="butt" d="m519.3822 95.99215c-1.8170166 -0.012435913 -3.2798462 -1.4954681 -3.267456 -3.3124466c0.012451172 -1.8169708 1.4954834 -3.2798386 3.312439 -3.2674026c1.8170166 0.0124435425 3.2798462 1.4954758 3.267456 3.3124466c-0.012451172 1.8169785 -1.4954834 3.2798386 -3.312439 3.2674026z" fill-rule="nonzero"/><path fill="#ff0000" stroke="#ff0000" stroke-width="2.0" stroke-linecap="butt" d="m519.74646 42.779503c1.8169556 0.012439728 3.2797852 1.495472 3.267395 3.3124466c-0.012451172 1.8169708 -1.4954834 3.2798386 -3.312439 3.2673988c-1.8170166 -0.012435913 -3.2798462 -1.4954681 -3.267395 -3.3124428c0.012390137 -1.8169746 1.4954224 -3.2798386 3.312439 -3.2674026z" fill-rule="nonzero"/><path fill="#000000" fill-opacity="0.0" d="m576.7139 96.99213l0.3779297 -55.2126" fill-rule="evenodd"/><path stroke="#ff0000" stroke-width="2.0" stroke-linejoin="round" stroke-linecap="butt" stroke-dasharray="8.0,6.0" d="m576.7658 89.4123l0.27416992 -40.05295" fill-rule="evenodd"/><path fill="#ff0000" stroke="#ff0000" stroke-width="2.0" stroke-linecap="butt" d="m576.72076 95.99215c-1.8169556 -0.012435913 -3.2798462 -1.4954681 -3.267395 -3.3124466c0.012451172 -1.8169708 1.4954834 -3.2798386 3.312439 -3.2674026c1.8169556 0.0124435425 3.2798462 1.4954758 3.267395 3.3124466c-0.012451172 1.8169785 -1.4954834 3.2798386 -3.312439 3.2674026z" fill-rule="nonzero"/><path fill="#ff0000" stroke="#ff0000" stroke-width="2.0" stroke-linecap="butt" d="m577.085 42.779503c1.8169556 0.012439728 3.2798462 1.495472 3.267395 3.3124466c-0.012451172 1.8169708 -1.4954834 3.2798386 -3.312439 3.2673988c-1.8169556 -0.012435913 -3.2798462 -1.4954681 -3.267395 -3.3124428c0.012451172 -1.8169746 1.4954834 -3.2798386 3.312439 -3.2674026z" fill-rule="nonzero"/><path fill="#000000" fill-opacity="0.0" d="m639.22705 147.17061l-1.3543701 -105.38583" fill-rule="evenodd"/><path stroke="#ff0000" stroke-width="2.0" stroke-linejoin="round" stroke-linecap="butt" stroke-dasharray="8.0,6.0" d="m639.12964 139.59123l-1.1595459 -90.22708" fill-rule="evenodd"/><path fill="#ff0000" stroke="#ff0000" stroke-width="2.0" stroke-linecap="butt" d="m639.2142 146.17068c-1.8168335 0.023345947 -3.3086548 -1.4305878 -3.3319702 -3.2474518c-0.023376465 -1.816864 1.430542 -3.3086548 3.2474365 -3.3320007c1.8168335 -0.023345947 3.3086548 1.4305878 3.3319702 3.2474518c0.023376465 1.816864 -1.430542 3.3086548 -3.2474365 3.3320007z" fill-rule="nonzero"/><path fill="#ff0000" stroke="#ff0000" stroke-width="2.0" stroke-linecap="butt" d="m637.88556 42.784695c1.8168335 -0.023349762 3.3086548 1.430584 3.3319702 3.2474518c0.023376465 1.8168678 -1.430542 3.3086548 -3.2474365 3.3320045c-1.8168335 0.023349762 -3.3086548 -1.430584 -3.3319702 -3.2474518c-0.023376465 -1.8168678 1.430542 -3.3086548 3.2474365 -3.3320045z" fill-rule="nonzero"/><path fill="#000000" fill-opacity="0.0" d="m675.6588 247.55643l0.22045898 -100.377945" fill-rule="evenodd"/><path stroke="#ff0000" stroke-width="2.0" stroke-linejoin="round" stroke-linecap="butt" stroke-dasharray="8.0,6.0" d="m675.6754 239.97644l0.18719482 -85.21799" fill-rule="evenodd"/><path fill="#ff0000" stroke="#ff0000" stroke-width="2.0" stroke-linecap="butt" d="m675.661 246.55643c-1.8170166 -0.003982544 -3.2868042 -1.4801941 -3.2827759 -3.2972107c0.003967285 -1.8170166 1.4802246 -3.2867584 3.2971802 -3.2827606c1.8170166 0.003982544 3.2868042 1.4801941 3.2827759 3.2972107c-0.003967285 1.8170166 -1.4801636 3.2867584 -3.2971802 3.2827606z" fill-rule="nonzero"/><path fill="#ff0000" stroke="#ff0000" stroke-width="2.0" stroke-linecap="butt" d="m675.8771 148.17848c1.8170166 0.003982544 3.2867432 1.4801941 3.2827759 3.2972107c-0.0040283203 1.8170166 -1.4802246 3.2867584 -3.2972412 3.2827606c-1.8170166 -0.003982544 -3.2867432 -1.4801941 -3.2827759 -3.2972107c0.0040283203 -1.8170166 1.4802246 -3.2867584 3.2972412 -3.2827606z" fill-rule="nonzero"/><path fill="#000000" fill-opacity="0.0" d="m697.40027 249.5958l-0.8189087 -102.425186" fill-rule="evenodd"/><path stroke="#ff0000" stroke-width="2.0" stroke-linejoin="round" stroke-linecap="butt" stroke-dasharray="8.0,6.0" d="m697.33966 242.01604l-0.6976929 -87.26567" fill-rule="evenodd"/><path fill="#ff0000" stroke="#ff0000" stroke-width="2.0" stroke-linecap="butt" d="m697.3923 248.59583c-1.8169556 0.014541626 -3.3016968 -1.4466248 -3.3162231 -3.2635803c-0.014526367 -1.8169556 1.4466553 -3.3016815 3.2636108 -3.316208c1.8169556 -0.014526367 3.3016968 1.44664 3.3162231 3.2635956c0.014526367 1.8169556 -1.4466553 3.3016663 -3.2636108 3.3161926z" fill-rule="nonzero"/><path fill="#ff0000" stroke="#ff0000" stroke-width="2.0" stroke-linecap="butt" d="m696.58936 148.17058c1.8169556 -0.014526367 3.3016968 1.4466248 3.3162231 3.2635803c0.014526367 1.8169708 -1.4466553 3.3016815 -3.2636108 3.316208c-1.8169556 0.014526367 -3.3016968 -1.44664 -3.3162231 -3.2635956c-0.014526367 -1.8169556 1.4466553 -3.3016663 3.2636108 -3.3161926z" fill-rule="nonzero"/><path fill="#000000" fill-opacity="0.0" d="m727.04724 248.61942l0 -155.08661" fill-rule="evenodd"/><path stroke="#ff0000" stroke-width="2.0" stroke-linejoin="round" stroke-linecap="butt" stroke-dasharray="8.0,6.0" d="m727.04724 241.03943l0 -139.92662" fill-rule="evenodd"/><path fill="#ff0000" stroke="#ff0000" stroke-width="2.0" stroke-linecap="butt" d="m727.04724 247.61942c-1.8170166 0 -3.289978 -1.4729767 -3.289978 -3.2899933c0 -1.8170166 1.4729614 -3.2899933 3.289978 -3.2899933c1.8170166 0 3.289978 1.4729767 3.289978 3.2899933c0 1.8170166 -1.4729614 3.2899933 -3.289978 3.2899933z" fill-rule="nonzero"/><path fill="#ff0000" stroke="#ff0000" stroke-width="2.0" stroke-linecap="butt" d="m727.04724 94.53281c1.8170166 0 3.289978 1.4729843 3.289978 3.290001c0 1.8170166 -1.4729614 3.290001 -3.289978 3.290001c-1.8170166 0 -3.289978 -1.4729843 -3.289978 -3.290001c0 -1.8170166 1.4729614 -3.290001 3.289978 -3.290001z" fill-rule="nonzero"/><path fill="#000000" fill-opacity="0.0" d="m836.0525 96.99213l0.3779297 -55.2126" fill-rule="evenodd"/><path stroke="#ff0000" stroke-width="2.0" stroke-linejoin="round" stroke-linecap="butt" stroke-dasharray="8.0,6.0" d="m836.10443 89.4123l0.2741089 -40.05295" fill-rule="evenodd"/><path fill="#ff0000" stroke="#ff0000" stroke-width="2.0" stroke-linecap="butt" d="m836.0593 95.99215c-1.8169556 -0.012435913 -3.2798462 -1.4954681 -3.267395 -3.3124466c0.012451172 -1.8169708 1.4954834 -3.2798386 3.312439 -3.2674026c1.8169556 0.0124435425 3.2798462 1.4954758 3.267395 3.3124466c-0.012451172 1.8169785 -1.4954224 3.2798386 -3.312439 3.2674026z" fill-rule="nonzero"/><path fill="#ff0000" stroke="#ff0000" stroke-width="2.0" stroke-linecap="butt" d="m836.4236 42.779503c1.8170166 0.012439728 3.2798462 1.495472 3.267395 3.3124466c-0.012390137 1.8169708 -1.4954224 3.2798386 -3.312439 3.2673988c-1.8169556 -0.012435913 -3.2798462 -1.4954681 -3.267395 -3.3124428c0.012451172 -1.8169746 1.4954834 -3.2798386 3.312439 -3.2674026z" fill-rule="nonzero"/></g></svg>